<svg width="80" height="80" viewBox="0 0 80 80" fill="none" xmlns="http://www.w3.org/2000/svg">
<g clip-path="url(#clip0_1_65)">
<path d="M-160 26L-150 16C-144.477 10.4771 -135.523 10.4772 -130 16V16C-124.477 21.5228 -115.523 21.5228 -110 16V16C-104.477 10.4772 -95.5228 10.4772 -90 16V16C-84.4772 21.5228 -75.5228 21.5228 -70 16V16C-64.4772 10.4772 -55.5228 10.4772 -50 16V16C-44.4772 21.5228 -35.5228 21.5228 -30 16V16C-24.4772 10.4772 -15.5228 10.4772 -10 16V16C-4.47715 21.5228 4.47715 21.5228 10 16V16C15.5228 10.4772 24.4772 10.4772 30 16V16C35.5228 21.5228 44.4772 21.5228 50 16V16C55.5228 10.4772 64.4772 10.4772 70 16V16C75.5228 21.5228 84.4772 21.5228 90 16V16C95.5228 10.4772 104.477 10.4772 110 16V16C115.523 21.5228 124.477 21.5228 130 16V16C135.523 10.4772 144.477 10.4772 150 16V16C155.523 21.5228 164.477 21.5228 170 16V16C175.523 10.4772 184.477 10.4772 190 16V16C195.523 21.5228 204.477 21.5228 210 16V16C215.523 10.4772 224.477 10.4772 230 16L240 26" stroke="#44444D" stroke-width="4" stroke-linecap="round"/>
<path d="M-160 46L-150 36C-144.477 30.4771 -135.523 30.4772 -130 36V36C-124.477 41.5228 -115.523 41.5228 -110 36V36C-104.477 30.4772 -95.5228 30.4772 -90 36V36C-84.4772 41.5228 -75.5228 41.5228 -70 36V36C-64.4772 30.4772 -55.5228 30.4772 -50 36V36C-44.4772 41.5228 -35.5228 41.5228 -30 36V36C-24.4772 30.4772 -15.5228 30.4772 -10 36V36C-4.47715 41.5228 4.47715 41.5228 10 36V36C15.5228 30.4772 24.4772 30.4772 30 36V36C35.5228 41.5228 44.4772 41.5228 50 36V36C55.5228 30.4772 64.4772 30.4772 70 36V36C75.5228 41.5228 84.4772 41.5228 90 36V36C95.5228 30.4772 104.477 30.4772 110 36V36C115.523 41.5228 124.477 41.5228 130 36V36C135.523 30.4772 144.477 30.4772 150 36V36C155.523 41.5228 164.477 41.5228 170 36V36C175.523 30.4772 184.477 30.4772 190 36V36C195.523 41.5228 204.477 41.5228 210 36V36C215.523 30.4772 224.477 30.4772 230 36L240 46" stroke="#44444D" stroke-width="4" stroke-linecap="round"/>
<path d="M-160 66L-150 56C-144.477 50.4771 -135.523 50.4772 -130 56V56C-124.477 61.5228 -115.523 61.5228 -110 56V56C-104.477 50.4772 -95.5228 50.4772 -90 56V56C-84.4772 61.5228 -75.5228 61.5228 -70 56V56C-64.4772 50.4772 -55.5228 50.4772 -50 56V56C-44.4772 61.5228 -35.5228 61.5228 -30 56V56C-24.4772 50.4772 -15.5228 50.4772 -10 56V56C-4.47715 61.5228 4.47715 61.5228 10 56V56C15.5228 50.4772 24.4772 50.4772 30 56V56C35.5228 61.5228 44.4772 61.5228 50 56V56C55.5228 50.4772 64.4772 50.4772 70 56V56C75.5228 61.5228 84.4772 61.5228 90 56V56C95.5228 50.4772 104.477 50.4772 110 56V56C115.523 61.5228 124.477 61.5228 130 56V56C135.523 50.4772 144.477 50.4772 150 56V56C155.523 61.5228 164.477 61.5228 170 56V56C175.523 50.4772 184.477 50.4772 190 56V56C195.523 61.5228 204.477 61.5228 210 56V56C215.523 50.4772 224.477 50.4772 230 56L240 66" stroke="#44444D" stroke-width="4" stroke-linecap="round"/>
</g>
<defs>
<clipPath id="clip0_1_65">
<rect width="80" height="80" fill="white"/>
</clipPath>
</defs>
</svg>
