<svg width="80" height="80" viewBox="0 0 80 80" fill="none" xmlns="http://www.w3.org/2000/svg">
<g clip-path="url(#clip0_1_323)">
<rect width="80" height="80" fill="#1B1E3B"/>
<path d="M-160 46L-150 36C-144.477 30.4771 -135.523 30.4772 -130 36V36C-124.477 41.5228 -115.523 41.5228 -110 36V36C-104.477 30.4772 -95.5228 30.4772 -90 36V36C-84.4772 41.5228 -75.5228 41.5228 -70 36V36C-64.4772 30.4772 -55.5228 30.4772 -50 36V36C-44.4772 41.5228 -35.5228 41.5228 -30 36V36C-24.4772 30.4772 -15.5228 30.4772 -10 36V36C-4.47715 41.5228 4.47715 41.5228 10 36V36C15.5228 30.4772 24.4772 30.4772 30 36V36C35.5228 41.5228 44.4772 41.5228 50 36V36C55.5228 30.4772 64.4772 30.4772 70 36V36C75.5228 41.5228 84.4772 41.5228 90 36V36C95.5228 30.4772 104.477 30.4772 110 36V36C115.523 41.5228 124.477 41.5228 130 36V36C135.523 30.4772 144.477 30.4772 150 36V36C155.523 41.5228 164.477 41.5228 170 36V36C175.523 30.4772 184.477 30.4772 190 36V36C195.523 41.5228 204.477 41.5228 210 36V36C215.523 30.4772 224.477 30.4772 230 36L240 46" stroke="#2A2696" stroke-width="30" stroke-linecap="round"/>
<path d="M-160 30L-150 20C-144.477 14.4771 -135.523 14.4772 -130 20V20C-124.477 25.5228 -115.523 25.5228 -110 20V20C-104.477 14.4772 -95.5228 14.4772 -90 20V20C-84.4772 25.5228 -75.5228 25.5228 -70 20V20C-64.4772 14.4772 -55.5228 14.4772 -50 20V20C-44.4772 25.5228 -35.5228 25.5228 -30 20V20C-24.4772 14.4772 -15.5228 14.4772 -10 20V20C-4.47715 25.5228 4.47715 25.5228 10 20V20C15.5228 14.4772 24.4772 14.4772 30 20V20C35.5228 25.5228 44.4772 25.5228 50 20V20C55.5228 14.4772 64.4772 14.4772 70 20V20C75.5228 25.5228 84.4772 25.5228 90 20V20C95.5228 14.4772 104.477 14.4772 110 20V20C115.523 25.5228 124.477 25.5228 130 20V20C135.523 14.4772 144.477 14.4772 150 20V20C155.523 25.5228 164.477 25.5228 170 20V20C175.523 14.4772 184.477 14.4772 190 20V20C195.523 25.5228 204.477 25.5228 210 20V20C215.523 14.4772 224.477 14.4772 230 20L240 30" stroke="#EBB935" stroke-width="8" stroke-linecap="round"/>
<path d="M-160 46L-150 36C-144.477 30.4771 -135.523 30.4772 -130 36V36C-124.477 41.5228 -115.523 41.5228 -110 36V36C-104.477 30.4772 -95.5228 30.4772 -90 36V36C-84.4772 41.5228 -75.5228 41.5228 -70 36V36C-64.4772 30.4772 -55.5228 30.4772 -50 36V36C-44.4772 41.5228 -35.5228 41.5228 -30 36V36C-24.4772 30.4772 -15.5228 30.4772 -10 36V36C-4.47715 41.5228 4.47715 41.5228 10 36V36C15.5228 30.4772 24.4772 30.4772 30 36V36C35.5228 41.5228 44.4772 41.5228 50 36V36C55.5228 30.4772 64.4772 30.4772 70 36V36C75.5228 41.5228 84.4772 41.5228 90 36V36C95.5228 30.4772 104.477 30.4772 110 36V36C115.523 41.5228 124.477 41.5228 130 36V36C135.523 30.4772 144.477 30.4772 150 36V36C155.523 41.5228 164.477 41.5228 170 36V36C175.523 30.4772 184.477 30.4772 190 36V36C195.523 41.5228 204.477 41.5228 210 36V36C215.523 30.4772 224.477 30.4772 230 36L240 46" stroke="#EBB935" stroke-width="8" stroke-linecap="round"/>
<path d="M-160 62L-150 52C-144.477 46.4771 -135.523 46.4772 -130 52V52C-124.477 57.5228 -115.523 57.5228 -110 52V52C-104.477 46.4772 -95.5228 46.4772 -90 52V52C-84.4772 57.5228 -75.5228 57.5228 -70 52V52C-64.4772 46.4772 -55.5228 46.4772 -50 52V52C-44.4772 57.5228 -35.5228 57.5228 -30 52V52C-24.4772 46.4772 -15.5228 46.4772 -10 52V52C-4.47715 57.5228 4.47715 57.5228 10 52V52C15.5228 46.4772 24.4772 46.4772 30 52V52C35.5228 57.5228 44.4772 57.5228 50 52V52C55.5228 46.4772 64.4772 46.4772 70 52V52C75.5228 57.5228 84.4772 57.5228 90 52V52C95.5228 46.4772 104.477 46.4772 110 52V52C115.523 57.5228 124.477 57.5228 130 52V52C135.523 46.4772 144.477 46.4772 150 52V52C155.523 57.5228 164.477 57.5228 170 52V52C175.523 46.4772 184.477 46.4772 190 52V52C195.523 57.5228 204.477 57.5228 210 52V52C215.523 46.4772 224.477 46.4772 230 52L240 62" stroke="#EBB935" stroke-width="8" stroke-linecap="round"/>
</g>
<defs>
<clipPath id="clip0_1_323">
<rect width="80" height="80" fill="white"/>
</clipPath>
</defs>
</svg>
